PathFileType	4	(X/Y/Z)	/Users/itak/Documents/Research/Walk-IL/dataset/trc/00208_00009.trc
DataRate	CameraRate	NumFrames	NumMarkers	Units	OrigDataRate	OrigDataStartFrame	OrigNumFrames
100.000000	100.000000	4	53	mm	100.000000	0	787
Frame#	Time	RPSI			LPSI			L3			STRN			T10			C7			CLAV			RBAK			LBAK			LSHO			LUPA			LAEL			LAOL			LWTS			LWPS			LFRA			LIFD			LHPS			LHTS			RSHO			RUPA			RAEL			RAOL			RWTS			RWPS			RFRA			RIFD			RHTS			RHPS			RBHD			LFHD			RFHD			LBHD			LHIP			RHIP			RASI			LASI			LKNE			LTHI			LANK			LTIP			LTOE			LMT1			LMT5			LHEE			RKNE			RTHI			RANK			RTIP			RTOE			RMT1			RMT5			RHEE			
		X1	Y1	Z1	X2	Y2	Z2	X3	Y3	Z3	X4	Y4	Z4	X5	Y5	Z5	X6	Y6	Z6	X7	Y7	Z7	X8	Y8	Z8	X9	Y9	Z9	X10	Y10	Z10	X11	Y11	Z11	X12	Y12	Z12	X13	Y13	Z13	X14	Y14	Z14	X15	Y15	Z15	X16	Y16	Z16	X17	Y17	Z17	X18	Y18	Z18	X19	Y19	Z19	X20	Y20	Z20	X21	Y21	Z21	X22	Y22	Z22	X23	Y23	Z23	X24	Y24	Z24	X25	Y25	Z25	X26	Y26	Z26	X27	Y27	Z27	X28	Y28	Z28	X29	Y29	Z29	X30	Y30	Z30	X31	Y31	Z31	X32	Y32	Z32	X33	Y33	Z33	X34	Y34	Z34	X35	Y35	Z35	X36	Y36	Z36	X37	Y37	Z37	X38	Y38	Z38	X39	Y39	Z39	X40	Y40	Z40	X41	Y41	Z41	X42	Y42	Z42	X43	Y43	Z43	X44	Y44	Z44	X45	Y45	Z45	X46	Y46	Z46	X47	Y47	Z47	X48	Y48	Z48	X49	Y49	Z49	X50	Y50	Z50	X51	Y51	Z51	X52	Y52	Z52	X53	Y53	Z53	

1	0	-1316.324462890625	1058.497680664062	-119.6828460693359	-1303.259521484375	1062.4013671875	-238.9786071777344	-1311.6767578125	1132.534301757812	-198.0630645751953	-1074.324584960938	1321.970947265625	-178.548583984375	-1327.339965820312	1260.568237304688	-192.8731079101562	-1267.103637695312	1522.95068359375	-194.8287506103516	-1101.635009765625	1438.352416992188	-181.1663665771484	-1347.82373046875	1384.097534179688	-126.8624420166016	-1277.75634765625	1483.403564453125	-306.4924926757812	-1184.748168945312	1484.852661132812	-356.2534790039062	-1204.602416992188	1364.84521484375	-433.1038513183594	-1179.968017578125	1155.72509765625	-460.6040344238281	-1256.040771484375	1137.305297851562	-422.2713012695312	-1088.173706054688	925.6307983398438	-393.6631469726562	-1104.101440429688	907.777099609375	-474.220458984375	-1151.797607421875	1049.396118164062	-471.3539733886719	-1064.117553710938	727.6209716796875	-406.2973327636719	-1082.42578125	820.6483154296875	-468.1274108886719	-1031.671142578125	836.2971801757812	-414.8568725585938	-1220.883056640625	1481.633544921875	-20.79798316955566	-1242.4052734375	1416.615478515625	45.03875732421875	-1247.476196289062	1133.762939453125	86.36399841308594	-1283.587646484375	1127.483032226562	-1.791539788246155	-1108.229370117188	921.2301025390625	30.19420623779297	-1154.42919921875	905.9186401367188	100.4369583129883	-1217.320922851562	1065.595703125	96.59706115722656	-1086.66796875	725.3284301757812	28.18052864074707	-1066.279418945312	800.1536865234375	40.74778747558594	-1111.649291992188	799.8606567382812	97.50369262695312	-1250.890258789062	1673.939819335938	-156.0644989013672	-1036.935791015625	1736.924438476562	-203.2881317138672	-1060.477661132812	1734.797241210938	-105.8730773925781	-1177.435546875	1686.901977539062	-274.8580627441406	-1191.24072265625	995.60888671875	-369.2713928222656	-1230.346435546875	1015.706298828125	-3.85932469367981	-1130.5205078125	1056.417114257812	-31.42122840881348	-1095.101440429688	1036.0390625	-311.137939453125	-1172.985229492188	508.5414123535156	-317.7055358886719	-1167.838623046875	653.0261840820312	-351.2296752929688	-1256.55908203125	41.01095581054688	-302.7570495605469	-1224.192993164062	287.3380126953125	-322.8061218261719	-1042.913818359375	45.28272247314453	-245.1135559082031	-1110.97998046875	39.81908416748047	-202.6471405029297	-1128.889526367188	40.24570083618164	-318.715576171875	-1318.774169921875	49.03034591674805	-251.7083129882812	-1211.28466796875	520.7042846679688	-33.81388092041016	-1180.319946289062	790.5723266601562	11.73794555664062	-1295.384887695312	40.91868209838867	-59.69429016113281	-1209.068603515625	405.8291015625	-50.98398208618164	-1079.29443359375	46.83881759643555	-75.1416015625	-1131.655395507812	45.0853271484375	-125.234489440918	-1190.932250976562	40.95919036865234	-18.31451606750488	-1349.65283203125	39.04940032958984	-124.7974853515625	
2	0.01	-1316.255126953125	1058.4990234375	-119.687385559082	-1303.185668945312	1062.399291992188	-238.9969024658203	-1311.639282226562	1132.521850585938	-198.0775604248047	-1074.289428710938	1321.969360351562	-178.5423278808594	-1327.292236328125	1260.554443359375	-192.8745727539062	-1267.058715820312	1522.9404296875	-194.8190460205078	-1101.607788085938	1438.35498046875	-181.1601715087891	-1347.775756835938	1384.0849609375	-126.8592224121094	-1277.732666015625	1483.38818359375	-306.4934692382812	-1184.721801757812	1484.849487304688	-356.2540283203125	-1204.551025390625	1364.833251953125	-433.0934448242188	-1179.92724609375	1155.71484375	-460.6016845703125	-1256.008178710938	1137.297485351562	-422.2681579589844	-1088.101318359375	925.6251831054688	-393.6463928222656	-1104.043090820312	907.76806640625	-474.2021179199219	-1151.77001953125	1049.388916015625	-471.3490600585938	-1064.10400390625	727.6372680664062	-406.27978515625	-1082.369750976562	820.6450805664062	-468.1011962890625	-1031.578857421875	836.2938842773438	-414.8313598632812	-1220.83740234375	1481.617065429688	-20.79095077514648	-1242.38720703125	1416.593994140625	45.02909851074219	-1247.442016601562	1133.754150390625	86.37223815917969	-1283.513305664062	1127.476928710938	-1.783887386322021	-1108.20361328125	921.21484375	30.19020652770996	-1154.368774414062	905.9019775390625	100.4462203979492	-1217.257690429688	1065.588623046875	96.59848785400391	-1086.620361328125	725.3040161132812	28.17916679382324	-1066.226196289062	800.162109375	40.74524688720703	-1111.59033203125	799.8339233398438	97.49496459960938	-1250.867919921875	1673.9384765625	-156.0595703125	-1036.92138671875	1736.9267578125	-203.2868347167969	-1060.461181640625	1734.797119140625	-105.8676223754883	-1177.4169921875	1686.892700195312	-274.8571166992188	-1191.173828125	995.605712890625	-369.2843627929688	-1230.344848632812	1015.70947265625	-3.902696132659912	-1130.486938476562	1056.405883789062	-31.4272632598877	-1095.0732421875	1036.040771484375	-311.1454162597656	-1172.966430664062	508.5364685058594	-317.7113647460938	-1167.724853515625	653.0009155273438	-351.1740112304688	-1256.559814453125	41.01127243041992	-302.7577209472656	-1224.176391601562	287.3369140625	-322.8059692382812	-1042.9208984375	45.28763580322266	-245.1167449951172	-1110.978759765625	39.81668090820312	-202.6450500488281	-1128.886596679688	40.24525833129883	-318.7210693359375	-1318.778930664062	49.03748321533203	-251.7039184570312	-1211.255737304688	520.7093505859375	-33.82119369506836	-1180.251708984375	790.5646362304688	11.73921012878418	-1295.374877929688	40.91382598876953	-59.69134902954102	-1209.046508789062	405.8299255371094	-50.98371505737305	-1079.310546875	46.84964370727539	-75.14949798583984	-1131.657592773438	45.08575057983398	-125.2353439331055	-1190.936645507812	40.95680236816406	-18.32045745849609	-1349.64404296875	39.05841827392578	-124.8033905029297	
3	0.02	-1316.167114257812	1058.499877929688	-119.6923828125	-1303.096923828125	1062.396118164062	-239.0188903808594	-1311.59130859375	1132.505737304688	-198.0958251953125	-1074.242797851562	1321.967041015625	-178.5343170166016	-1327.232788085938	1260.536987304688	-192.8769378662109	-1267.005004882812	1522.92822265625	-194.8078002929688	-1101.574340820312	1438.357666015625	-181.1513519287109	-1347.719116210938	1384.068481445312	-126.8564910888672	-1277.702026367188	1483.36962890625	-306.4942016601562	-1184.688720703125	1484.844848632812	-356.2539978027344	-1204.487548828125	1364.818481445312	-433.0806274414062	-1179.87060546875	1155.703247070312	-460.5968933105469	-1255.968139648438	1137.28759765625	-422.2652282714844	-1088.015869140625	925.6154174804688	-393.6249084472656	-1103.971313476562	907.7564697265625	-474.181396484375	-1151.734130859375	1049.380004882812	-471.3418273925781	-1064.0751953125	727.6495361328125	-406.261962890625	-1082.302856445312	820.6400756835938	-468.0737609863281	-1031.471313476562	836.2841186523438	-414.7966918945312	-1220.776733398438	1481.595336914062	-20.77814674377441	-1242.3662109375	1416.567626953125	45.01666259765625	-1247.397338867188	1133.742431640625	86.38187408447266	-1283.41943359375	1127.46728515625	-1.772204279899597	-1108.168090820312	921.1981811523438	30.18728637695312	-1154.297119140625	905.8826293945312	100.4551620483398	-1217.178466796875	1065.57763671875	96.59947967529297	-1086.553833007812	725.2730712890625	28.17944145202637	-1066.157836914062	800.1690063476562	40.74344635009766	-1111.517700195312	799.8028564453125	97.4842529296875	-1250.841552734375	1673.93603515625	-156.0531311035156	-1036.902709960938	1736.929077148438	-203.2848968505859	-1060.441528320312	1734.797729492188	-105.8604507446289	-1177.39453125	1686.881225585938	-274.8540649414062	-1191.08935546875	995.6014404296875	-369.2984924316406	-1230.334838867188	1015.71240234375	-3.952708721160889	-1130.446411132812	1056.394287109375	-31.43057823181152	-1095.033935546875	1036.043090820312	-311.1558227539062	-1172.942504882812	508.5303955078125	-317.7184143066406	-1167.593872070312	652.9732666015625	-351.1156005859375	-1256.560546875	41.01193237304688	-302.7584533691406	-1224.15771484375	287.3364562988281	-322.8064270019531	-1042.927490234375	45.29232788085938	-245.1200714111328	-1110.976684570312	39.81418991088867	-202.6429290771484	-1128.883666992188	40.24488067626953	-318.7266235351562	-1318.784423828125	49.04499816894531	-251.6997528076172	-1211.219970703125	520.7160034179688	-33.83004760742188	-1180.169555664062	790.552978515625	11.73798274993896	-1295.365478515625	40.91066741943359	-59.68927383422852	-1209.024169921875	405.8300170898438	-50.98418426513672	-1079.322998046875	46.85813140869141	-75.15716552734375	-1131.659912109375	45.08634185791016	-125.2360992431641	-1190.941284179688	40.95297622680664	-18.32773208618164	-1349.634033203125	39.06650543212891	-124.8094024658203	
4	0.03	-1316.064575195312	1058.5	-119.6972961425781	-1302.998291015625	1062.391845703125	-239.0429992675781	-1311.53466796875	1132.486694335938	-198.1166687011719	-1074.185546875	1321.963989257812	-178.5245971679688	-1327.164184570312	1260.516723632812	-192.8804321289062	-1266.94580078125	1522.914916992188	-194.7957763671875	-1101.5361328125	1438.360107421875	-181.1396636962891	-1347.656982421875	1384.048461914062	-126.8548583984375	-1277.665283203125	1483.349243164062	-306.4944763183594	-1184.64990234375	1484.8388671875	-356.2528686523438	-1204.4150390625	1364.802124023438	-433.0660400390625	-1179.797607421875	1155.69140625	-460.5891418457031	-1255.922607421875	1137.276000976562	-422.2632446289062	-1087.922607421875	925.601318359375	-393.5994567871094	-1103.889770507812	907.7427368164062	-474.160400390625	-1151.690673828125	1049.369750976562	-471.3325500488281	-1064.029907226562	727.6549682617188	-406.2457885742188	-1082.2294921875	820.6329956054688	-468.0487365722656	-1031.355712890625	836.2657470703125	-414.7539672851562	-1220.701904296875	1481.568603515625	-20.75997352600098	-1242.342407226562	1416.537719726562	45.00324249267578	-1247.343505859375	1133.727905273438	86.39205932617188	-1283.309814453125	1127.45361328125	-1.756025671958923	-1108.122924804688	921.1814575195312	30.18671607971191	-1154.21875	905.8623046875	100.4624099731445	-1217.08349609375	1065.564086914062	96.60439300537109	-1086.469116210938	725.2373046875	28.18287086486816	-1066.075927734375	800.172607421875	40.74326705932617	-1111.435913085938	799.7699584960938	97.4727783203125	-1250.812866210938	1673.932250976562	-156.0451965332031	-1036.880249023438	1736.93115234375	-203.2821197509766	-1060.419677734375	1734.799194335938	-105.8516616821289	-1177.369262695312	1686.8681640625	-274.8482971191406	-1190.990478515625	995.5960083007812	-369.3125610351562	-1230.318115234375	1015.714721679688	-4.007513999938965	-1130.39990234375	1056.383422851562	-31.43062591552734	-1094.983032226562	1036.04638671875	-311.1691284179688	-1172.914428710938	508.5237121582031	-317.726318359375	-1167.45703125	652.9464111328125	-351.0619506835938	-1256.56103515625	41.01275634765625	-302.7590942382812	-1224.138671875	287.3366088867188	-322.8075561523438	-1042.932495117188	45.29616546630859	-245.1228942871094	-1110.973876953125	39.81188201904297	-202.6405334472656	-1128.881103515625	40.24460220336914	-318.7313842773438	-1318.790283203125	49.05224609375	-251.6963806152344	-1211.1787109375	520.72412109375	-33.83974838256836	-1180.077758789062	790.5372314453125	11.73320770263672	-1295.358520507812	40.9102783203125	-59.68877029418945	-1209.003662109375	405.8289489746094	-50.98542785644531	-1079.328857421875	46.86258316040039	-75.16349792480469	-1131.661987304688	45.08693695068359	-125.2365951538086	-1190.945678710938	40.94789505004883	-18.33547401428223	-1349.623657226562	39.07307815551758	-124.8146133422852	
